<?xml version="1.0" encoding="UTF-8"?>
<!DOCTYPE svg PUBLIC "-//W3C//DTD SVG 1.1//EN" "http://www.w3.org/Graphics/SVG/1.1/DTD/svg11.dtd">
<!-- Creator: CorelDRAW X7 -->
<svg xmlns="http://www.w3.org/2000/svg" xml:space="preserve" width="122px" height="192px" version="1.1" style="shape-rendering:geometricPrecision; text-rendering:geometricPrecision; image-rendering:optimizeQuality; fill-rule:evenodd; clip-rule:evenodd"
viewBox="0 0 11 17"
 xmlns:xlink="http://www.w3.org/1999/xlink">
 <defs>
  <style type="text/css">
   <![CDATA[
    .str0 {stroke:#373435;stroke-width:0.210209}
    .fil0 {fill:none}
   ]]>
  </style>
 </defs>
 <g id="Camada_x0020_1">
  <metadata id="CorelCorpID_0Corel-Layer"/>
  <path class="fil0 str0" d="M3 0l7 0c1,0 1,0 1,0 0,6 0,10 0,15 0,0 0,0 -1,0l0 0c-1,0 -1,1 -1,2l0 0c0,0 -1,0 -1,0l0 0 -8 0c0,0 0,0 0,0 0,-5 0,-9 0,-14 0,-1 0,-1 0,-1l1 0c0,0 1,-1 1,-1l0 -1c0,0 0,0 1,0l0 0z"/>
 </g>
</svg>
